<?xml version="1.0" encoding="utf-8"?>
<!-- Generator: Adobe Illustrator 30.5.1, SVG Export Plug-In . SVG Version: 9.03 Build 0)  -->
<svg version="1.0" id="Layer_1" xmlns="http://www.w3.org/2000/svg" xmlns:xlink="http://www.w3.org/1999/xlink" x="0px" y="0px"
	 viewBox="0 0 514.3 145.6" style="enable-background:new 0 0 514.3 145.6;" xml:space="preserve">
<style type="text/css">
	.st0{fill:#47B3FA;}
	.st1{fill:#3C91BF;}
	.st2{fill:none;stroke:#3D91BF;stroke-width:0.4894;stroke-miterlimit:10;}
	.st3{fill:#3D91BF;}
	.st4{fill:#FFFFFF;}
	.st5{fill:#FEDE07;}
	.st6{fill:#3D94C4;}
	.st7{fill:url(#SVGID_1_);}
	.st8{fill:url(#SVGID_00000120548319038826242260000007093307091193318319_);}
</style>
<polygon class="st0" points="123.2,-455.5 141.3,-419 128.5,-389.2 95.2,-389.9 "/>
<polyline class="st0" points="217.7,-389.9 169.9,-492.3 139.9,-492 174.4,-417.9 141.8,-417.9 155.3,-389.6 217.7,-389.9 "/>
<polygon class="st1" points="141.8,-417.9 155.3,-389.6 187.9,-389.8 174.3,-418 "/>
<line class="st2" x1="123.2" y1="-455" x2="123.7" y2="-434.5"/>
<circle class="st3" cx="123.7" cy="-434.5" r="1.1"/>
<path class="st4" d="M250.7-410.9l22.7-63.1h11.3l22.7,63.1h-11.6l-5.1-14.6h-23.5l-5,14.6H250.7z M270.5-434.7h17l-7.2-20.4
	c-0.5-1.6-1.1-3.6-1.3-4.9c-0.2,1.2-0.8,3.1-1.4,4.9L270.5-434.7z"/>
<path class="st4" d="M309.5-432c0-13.3,7.8-22.7,20.6-22.7c5.9,0,11.2,2.5,13.9,6.7v-26.9h10.5v64.1h-9.7l-0.6-6.7
	c-2.6,5-8.1,7.8-14.6,7.8C317.2-409.7,309.5-418.8,309.5-432z M343.9-432.3c0-7.7-4.7-13-12.1-13s-11.9,5.4-11.9,13
	c0,7.5,4.5,12.9,11.9,12.9S343.9-424.7,343.9-432.3z"/>
<path class="st4" d="M360.5-453.5h11.2l7.5,19.7c1.8,5.1,3.2,9.5,3.8,11.9c0.6-2.7,2.2-7.1,4-11.9l7.8-19.6h10.9l-17.8,42.6h-10.3
	L360.5-453.5z"/>
<path class="st4" d="M438.3-443.9h-3.9c-7.5,0-12.3,4.1-12.3,12.3v20.7h-10.6v-42.5h9.9l0.6,6.3c1.8-4.2,5.8-7.1,11.5-7.1
	c1.5,0,2.9,0.2,4.6,0.6L438.3-443.9L438.3-443.9z"/>
<path class="st5" d="M444.3-468.3c0-3.6,2.8-6.3,6.5-6.3c3.4,0,6.3,2.8,6.3,6.3c0,3.4-2.8,6.4-6.3,6.4
	C447.2-462,444.3-464.8,444.3-468.3z"/>
<rect x="445.5" y="-453.5" class="st4" width="10.6" height="42.6"/>
<path class="st4" d="M470.8-410.9v-33.7h-8.2v-8.8h8.2v-13.3h10.6v13.3h8.3v8.8h-8.3v33.8L470.8-410.9L470.8-410.9z"/>
<path class="st4" d="M493.2-432.1c0-13.4,8.7-22.6,21.2-22.6c12.7,0,20.9,8.5,20.9,21.8v3.2l-32.1,0.1c0.8,7.5,4.7,11.3,11.7,11.3
	c5.8,0,9.6-2.3,10.8-6.3h9.7c-1.8,9.3-9.6,14.9-20.7,14.9C502.2-409.7,493.2-419,493.2-432.1z M503.6-436.3h21.3
	c0-5.8-4.1-9.7-10.3-9.7C508.3-446.1,504.5-442.8,503.6-436.3z"/>
<g>
	<text transform="matrix(1 0 0 1 974.6439 -410.2425)"><tspan x="0" y="0" class="st4" style="font-family:'Satoshi-Bold'; font-size:100px;">Advr</tspan><tspan x="222.9" y="0" class="st5" style="font-family:'Satoshi-Bold'; font-size:100px;">i</tspan><tspan x="247.7" y="0" class="st4" style="font-family:'Satoshi-Bold'; font-size:100px;">te</tspan></text>
	<rect x="1201.6" y="-459.6" class="st4" width="12.5" height="49.6"/>
</g>
<g>
	<path class="st0" d="M782.6-384.1H758c-4.6,0-7.6-4.7-5.8-8.8l66.8-152.9c2.1-4.8,8.9-5.1,11.3-0.5l15.4,28.6l-57.4,129.9
		C787.4-385.6,785.1-384.1,782.6-384.1z"/>
	<path class="st1" d="M927.7-419.1l11.3,26.2c1.8,4.2-1.2,8.8-5.8,8.8l-94,0.3c-4.6,0-7.7-4.7-5.8-8.9l10.3-22.7
		c1-2.3,3.3-3.7,5.7-3.7L927.7-419.1z"/>
	<path class="st0" d="M933.2-384.1h-26.9l-59.7-133.6H881c2.5,0,4.8,1.5,5.8,3.8l52.2,121C940.8-388.8,937.7-384.1,933.2-384.1z"/>
</g>
<g>
	<text transform="matrix(1 0 0 1 974.6439 -410.2425)"><tspan x="0" y="0" class="st4" style="font-family:'Satoshi-Bold'; font-size:100px;">Advr</tspan><tspan x="222.9" y="0" class="st5" style="font-family:'Satoshi-Bold'; font-size:100px;">i</tspan><tspan x="247.7" y="0" class="st4" style="font-family:'Satoshi-Bold'; font-size:100px;">te</tspan></text>
	<rect x="1201.6" y="-459.6" class="st4" width="12.5" height="49.6"/>
</g>
<g>
	<path class="st0" d="M782.6-384.1H758c-4.6,0-7.6-4.7-5.8-8.8l66.8-152.9c2.1-4.8,8.9-5.1,11.3-0.5l15.4,28.6l-57.4,129.9
		C787.4-385.6,785.1-384.1,782.6-384.1z"/>
	<path class="st1" d="M927.7-419.1l11.3,26.2c1.8,4.2-1.2,8.8-5.8,8.8l-94,0.3c-4.6,0-7.7-4.7-5.8-8.9l10.3-22.7
		c1-2.3,3.3-3.7,5.7-3.7L927.7-419.1z"/>
	<path class="st0" d="M933.2-384.1h-26.9l-59.7-133.6H881c2.5,0,4.8,1.5,5.8,3.8l52.2,121C940.8-388.8,937.7-384.1,933.2-384.1z"/>
</g>
<g>
	<path class="st4" d="M160.6-89.3l23.4-64.8h11.6L219-89.3h-12l-5.2-15h-24.2l-5.2,15H160.6z M181-113.9h17.6l-7.4-20.9
		c-0.5-1.7-1.2-3.6-1.3-5c-0.3,1.2-0.8,3.2-1.4,5L181-113.9z"/>
	<path class="st4" d="M221.1-111c0-13.7,8-23.4,21.2-23.4c6.1,0,11.5,2.6,14.3,6.9v-27.7h10.7v66h-9.9l-0.7-6.8c-2.7,5.1-8.3,8-15,8
		C229-88.2,221.1-97.5,221.1-111z M256.5-111.4c0-7.9-4.9-13.4-12.4-13.4c-7.5,0-12.1,5.6-12.1,13.4s4.6,13.3,12.1,13.3
		C251.6-98.1,256.5-103.5,256.5-111.4z"/>
	<path class="st4" d="M273.6-133.1h11.5l7.6,20.1c1.9,5.2,3.4,9.8,3.9,12.1c0.6-2.7,2.2-7.4,4.1-12.1l8-20.1h11.2l-18.3,43.8h-10.6
		L273.6-133.1z"/>
	<path class="st4" d="M353.5-123.3h-4c-7.8,0-12.7,4.2-12.7,12.7v21.3H326V-133h10.2l0.6,6.4c1.9-4.3,6-7.3,11.9-7.3
		c1.5,0,3,0.2,4.8,0.6V-123.3z"/>
	<path class="st5" d="M366.3-141.9c3.5,0,6.5-2.9,6.5-6.6s-2.9-6.5-6.5-6.5c-3.7,0-6.6,2.8-6.6,6.5S362.6-141.9,366.3-141.9z"/>
	<rect x="360.9" y="-133.1" class="st4" width="10.8" height="43.8"/>
	<path class="st4" d="M386.9-89.3v-34.8h-8.4v-9h8.4v-13.7h10.8v13.7h8.5v9h-8.5v34.8H386.9z"/>
	<path class="st4" d="M410-111.2c0-13.7,9-23.2,21.8-23.2c13.1,0,21.5,8.8,21.5,22.4v3.3l-33,0.1c0.8,7.7,4.9,11.6,12.1,11.6
		c5.9,0,9.8-2.3,11.1-6.5h10c-1.9,9.6-9.8,15.3-21.3,15.3C419.1-88.2,410-97.6,410-111.2z M420.5-115.6h22c0-6-4.2-10-10.6-10
		C425.5-125.6,421.6-122.1,420.5-115.6z"/>
</g>
<g>
	<path class="st0" d="M41.7-75.2H27.1c-2.7,0-4.5-2.8-3.4-5.2L63.3-171c1.2-2.9,5.2-3,6.7-0.3l9.1,17l-34,77
		C44.5-76,43.2-75.2,41.7-75.2z"/>
	<path class="st6" d="M127.7-95.9l6.7,15.5c1.1,2.5-0.7,5.2-3.4,5.2l-55.7,0.2c-2.7,0-4.5-2.8-3.4-5.3l6.1-13.4
		c0.6-1.3,1.9-2.2,3.4-2.2L127.7-95.9z"/>
	<path class="st0" d="M130.9-75.2h-16l-35.4-79.2H100c1.5,0,2.8,0.9,3.4,2.3l30.9,71.7C135.4-77.9,133.6-75.2,130.9-75.2z"/>
</g>
<g>
	<path class="st4" d="M175.2,107.3l23.4-64.8h11.6l23.4,64.8h-12l-5.2-15h-24.2l-5.2,15H175.2z M195.6,82.7h17.6l-7.4-20.9
		c-0.5-1.7-1.2-3.6-1.3-5c-0.3,1.2-0.8,3.2-1.4,5L195.6,82.7z"/>
	<path class="st4" d="M235.6,85.6c0-13.7,8-23.4,21.2-23.4c6.1,0,11.5,2.6,14.3,6.9V41.3h10.7v66h-9.9l-0.7-6.8c-2.7,5.1-8.3,8-15,8
		C243.5,108.4,235.6,99.1,235.6,85.6z M271,85.2c0-7.9-4.9-13.4-12.4-13.4c-7.5,0-12.1,5.6-12.1,13.4s4.6,13.3,12.1,13.3
		C266.1,98.5,271,93.1,271,85.2z"/>
	<path class="st4" d="M288.1,63.5h11.5l7.6,20.1c1.9,5.2,3.4,9.8,3.9,12.1c0.6-2.7,2.2-7.4,4.1-12.1l8-20.1h11.2l-18.3,43.8h-10.6
		L288.1,63.5z"/>
	<path class="st4" d="M368.1,73.3h-4c-7.8,0-12.7,4.2-12.7,12.7v21.3h-10.8V63.6h10.2l0.6,6.4c1.9-4.3,6-7.3,11.9-7.3
		c1.5,0,3,0.2,4.8,0.6V73.3z"/>
	<linearGradient id="SVGID_1_" gradientUnits="userSpaceOnUse" x1="374.2049" y1="48.1819" x2="387.326" y2="48.1819">
		<stop  offset="0" style="stop-color:#47B3FA"/>
		<stop  offset="0.2174" style="stop-color:#6BBCCA"/>
		<stop  offset="0.7091" style="stop-color:#C6D151"/>
		<stop  offset="1" style="stop-color:#FEDE07"/>
	</linearGradient>
	<path class="st7" d="M380.9,54.7c3.5,0,6.5-2.9,6.5-6.6c0-3.6-2.9-6.5-6.5-6.5c-3.7,0-6.6,2.8-6.6,6.5
		C374.2,51.8,377.1,54.7,380.9,54.7z"/>
	<rect x="375.4" y="63.5" class="st4" width="10.8" height="43.8"/>
	<path class="st4" d="M401.5,107.3V72.5h-8.4v-9h8.4V49.8h10.8v13.7h8.5v9h-8.5v34.8H401.5z"/>
	<path class="st4" d="M424.6,85.4c0-13.7,9-23.2,21.8-23.2c13.1,0,21.5,8.8,21.5,22.4v3.3l-33,0.1c0.8,7.7,4.9,11.6,12.1,11.6
		c5.9,0,9.8-2.3,11.1-6.5h10c-1.9,9.6-9.8,15.3-21.3,15.3C433.7,108.4,424.6,98.9,424.6,85.4z M435.1,81h22c0-6-4.2-10-10.6-10
		C440.1,71,436.2,74.5,435.1,81z"/>
</g>
<g>
	<g>
		
			<linearGradient id="SVGID_00000157269636368376739950000001914552909320869808_" gradientUnits="userSpaceOnUse" x1="37.9343" y1="72.4717" x2="149.2615" y2="72.4717">
			<stop  offset="0.5232" style="stop-color:#47B3FA"/>
			<stop  offset="0.6268" style="stop-color:#6BBCCA"/>
			<stop  offset="0.8613" style="stop-color:#C6D151"/>
			<stop  offset="1" style="stop-color:#FEDE07"/>
		</linearGradient>
		<path style="fill:url(#SVGID_00000157269636368376739950000001914552909320869808_);" d="M84.6,25.3c-1.5-2.7-5.5-2.6-6.7,0.3
			l-39.6,90.7c-1.1,2.5,0.7,5.2,3.4,5.2h14.6c1.5,0,2.8-0.9,3.4-2.2l34-77L84.6,25.3z M148.9,116.2l-6.7-15.5h0L118,44.5
			c-0.6-1.4-1.9-2.3-3.4-2.3H94.1l26.1,58.5l-24.3,0c-1.5,0-2.8,0.9-3.4,2.2l-6.1,13.4c-1.1,2.5,0.7,5.3,3.4,5.3l55.7-0.2
			C148.2,121.4,150,118.7,148.9,116.2z"/>
	</g>
</g>
</svg>
